<svg xmlns="http://www.w3.org/2000/svg">

  <symbol id="nav-icon" viewBox="0 0 250 250">
    <title>Navigational Icon</title>
    <path d="M116.49,111,242.3,138.15l-83.47,74.28L8,160.41,116.5,111.08m.28-36.65,127.05,21.1-86.11,58-152.06-40Zm0-37L245.58,52,159.88,91.9,5.58,64.15Z" />
  </symbol>

  <symbol id="search-icon" viewBox="0 0 250 250">
    <title>search-icon</title>
    <path d="M153.21,153.21l91.94,91.94M91.76,5.14A86.61,86.61,0,1,1,5.14,91.76,86.61,86.61,0,0,1,91.76,5.14Zm73.43,87.67c.66-40.65-30.83-74.06-70.41-74.7" />
  </symbol>

  <symbol id="info-icon" viewBox="0 0 250 250">
    <title>info-icon</title>
    <path d="M125,5A120,120,0,1,1,5,125,120,120,0,0,1,125,5Zm0,24.78a19.43,19.43,0,1,1-19.43,19.43A19.43,19.43,0,0,1,125,29.78ZM98.77,91h52.47M98.77,220.22h52.47m0,1c0-72-23.47-130.2-52.47-130.2" />
  </symbol>

  <symbol id="close-icon" viewBox="0 0 250 250">
    <title>close-icon</title>
    <path d="M125,5A120,120,0,1,0,245,125,120,120,0,0,0,125,5Zm0,120,53.76-76.8m0,153.6L125,125M71.24,200.84,125,125M71.24,49.16,125,125" />
  </symbol>

  <symbol id="left-icon" viewBox="0 0 250 250">
    <title>left-icon</title>
    <path d="M92.2,5,4.93,125.53M92.2,245,4.93,124.47m77.45,0,36,62.93m-36-61.87,36-62.93M92.2,6.07l26.18,57.6M92.2,243.93l26.18-57.6M167.22,5,100.93,125.53M167.22,245,100.93,124.47m58.83,0,27.35,62.93m-27.35-61.87L187.11,62.6M167.22,6.07l19.89,57.6M167.22,243.93l19.89-57.6M229.07,5,176.2,125.53M229.07,245,176.2,124.47m46.91,0,21.82,62.93m-21.82-61.87L244.93,62.6M229.07,6.07l15.86,57.6M229.07,243.93l15.86-57.6" />
  </symbol>

  <symbol id="right-icon" viewBox="0 0 250 250">
    <title>Right Arrow Icon</title>
    <path d="M157.83,5,245.1,125.53M157.83,245,245.1,124.47m-77.45,0-36,62.93m36-61.87-36-62.93M157.83,6.07l-26.18,57.6m26.18,180.27-26.18-57.6M82.77,5,149.1,125.53M82.77,245,149.1,124.47m-58.91,0L62.92,187.4M90.3,125.53,62.92,62.6M82.77,6.07,62.92,63.67M82.77,243.93l-19.85-57.6M20.92,5,73.83,125.53M20.92,245,73.83,124.47m-46.91,0L5.1,187.4m21.82-61.87L5.1,62.6M20.92,6.07,5.1,63.67M20.92,243.93,5.1,186.33" />
  </symbol>

  <symbol id="up-icon" viewBox="0 0 250 250">
    <title>up-icon</title>
    <path d="M125.69,4.33,5,223.39M245,225,125.69,4.33m0,240L5,223.39M245,225,125.69,244.33m0-240V196M5,223.39,125.69,196M245,225,125.69,196m0,48.32V196" />
  </symbol>

  <symbol id="down-icon" viewBox="0 0 250 250">
    <title>down-icon</title>
    <path
     d="M124.31,245,245,25.94M5,24.33,124.31,245m0-240L245,25.94M5,24.33,124.31,5m0,240V53.32M245,25.94,124.31,53.32M5,24.33l119.31,29M245,25.94,5,24.33" />
  </symbol>

</svg>
