<svg id="left-icon" xmlns="http://www.w3.org/2000/svg" viewBox="0 0 241.77 241.17">
  <title>left-icon</title>
  <path d="M92.2,5,4.93,125.53M92.2,245,4.93,124.47m77.45,0,36,62.93m-36-61.87,36-62.93M92.2,6.07l26.18,57.6M92.2,243.93l26.18-57.6M167.22,5,100.93,125.53M167.22,245,100.93,124.47m58.83,0,27.35,62.93m-27.35-61.87L187.11,62.6M167.22,6.07l19.89,57.6M167.22,243.93l19.89-57.6M229.07,5,176.2,125.53M229.07,245,176.2,124.47m46.91,0,21.82,62.93m-21.82-61.87L244.93,62.6M229.07,6.07l15.86,57.6M229.07,243.93l15.86-57.6" transform="translate(-4.12 -4.41)" fill="none" stroke="#000" stroke-miterlimit="10" stroke-width="2"/>
</svg>
