<?xml version="1.0" encoding="utf-8"?>
<!-- Generator: Adobe Illustrator 19.1.0, SVG Export Plug-In . SVG Version: 6.00 Build 0)  -->
<svg version="1.1" id="left-icon" xmlns="http://www.w3.org/2000/svg" xmlns:xlink="http://www.w3.org/1999/xlink" x="0px" y="0px"
	 viewBox="-184 276.8 241.8 241.2" style="enable-background:new -184 276.8 241.8 241.2;" xml:space="preserve">
<style type="text/css">
	.st0{fill:none;stroke:#000000;stroke-width:2;stroke-miterlimit:10;}
</style>
<title>left-icon</title>
<line class="st0" x1="-95.8" y1="277.4" x2="-183.1" y2="398"/>
<line class="st0" x1="-95.8" y1="517.4" x2="-183.1" y2="396.9"/>
<line class="st0" x1="-105.6" y1="396.9" x2="-69.6" y2="459.8"/>
<line class="st0" x1="-105.6" y1="398" x2="-69.6" y2="335"/>
<line class="st0" x1="-95.8" y1="278.5" x2="-69.6" y2="336.1"/>
<line class="st0" x1="-95.8" y1="516.4" x2="-69.6" y2="458.8"/>
<line class="st0" x1="-20.8" y1="277.4" x2="-87.1" y2="398"/>
<line class="st0" x1="-20.8" y1="517.4" x2="-87.1" y2="396.9"/>
<line class="st0" x1="-28.3" y1="396.9" x2="-0.9" y2="459.8"/>
<line class="st0" x1="-28.3" y1="398" x2="-0.9" y2="335"/>
<line class="st0" x1="-20.8" y1="278.5" x2="-0.9" y2="336.1"/>
<line class="st0" x1="-20.8" y1="516.4" x2="-0.9" y2="458.8"/>
<line class="st0" x1="41.1" y1="277.4" x2="-11.8" y2="398"/>
<line class="st0" x1="41.1" y1="517.4" x2="-11.8" y2="396.9"/>
<line class="st0" x1="35.1" y1="396.9" x2="56.9" y2="459.8"/>
<line class="st0" x1="35.1" y1="398" x2="56.9" y2="335"/>
<line class="st0" x1="41.1" y1="278.5" x2="56.9" y2="336.1"/>
<line class="st0" x1="41.1" y1="516.4" x2="56.9" y2="458.8"/>
</svg>
