<svg id="right-icon" xmlns="http://www.w3.org/2000/svg" viewBox="0 0 241.77 241.17">
  <title>right-icon</title>
  <path d="M157.83,5,245.1,125.53M157.83,245,245.1,124.47m-77.45,0-36,62.93m36-61.87-36-62.93M157.83,6.07l-26.18,57.6m26.18,180.27-26.18-57.6M82.77,5,149.1,125.53M82.77,245,149.1,124.47m-58.91,0L62.92,187.4M90.3,125.53,62.92,62.6M82.77,6.07,62.92,63.67M82.77,243.93l-19.85-57.6M20.92,5,73.83,125.53M20.92,245,73.83,124.47m-46.91,0L5.1,187.4m21.82-61.87L5.1,62.6M20.92,6.07,5.1,63.67M20.92,243.93,5.1,186.33" transform="translate(-4.14 -4.41)" stroke="#000" stroke-miterlimit="10" stroke-width="2"/>
</svg>
